<?xml version="1.0" encoding="UTF-8" standalone="no"?>
<!DOCTYPE svg PUBLIC "-//W3C//DTD SVG 1.1//EN"
 "http://www.w3.org/Graphics/SVG/1.1/DTD/svg11.dtd">
<!-- Generated by graphviz version 2.44.1 (20200629.0846)
 -->
<!-- Title: dependencies Pages: 1 -->
<svg width="1279pt" height="284pt"
 viewBox="0.00 0.00 1279.00 284.00" xmlns="http://www.w3.org/2000/svg" xmlns:xlink="http://www.w3.org/1999/xlink">
<g id="graph0" class="graph" transform="scale(1 1) rotate(0) translate(4 280)">
<title>dependencies</title>
<polygon fill="white" stroke="transparent" points="-4,4 -4,-280 1275,-280 1275,4 -4,4"/>
<text text-anchor="start" x="614.51" y="-42.4" font-family="sans-serif" font-weight="bold" font-size="14.00">Legend</text>
<polygon fill="#ffffb3" stroke="transparent" points="401.5,-10 401.5,-30 421.5,-30 421.5,-10 401.5,-10"/>
<text text-anchor="start" x="425.13" y="-15.4" font-family="sans-serif" font-size="14.00"> &#160;Declarations</text>
<polygon fill="#8dd3c7" stroke="transparent" points="514.5,-10 514.5,-30 534.5,-30 534.5,-10 514.5,-10"/>
<text text-anchor="start" x="538.23" y="-15.4" font-family="sans-serif" font-size="14.00"> &#160;Module</text>
<polygon fill="#80b1d3" stroke="transparent" points="600.5,-10 600.5,-30 620.5,-30 620.5,-10 600.5,-10"/>
<text text-anchor="start" x="624.28" y="-15.4" font-family="sans-serif" font-size="14.00"> &#160;Bootstrap</text>
<polygon fill="#fdb462" stroke="transparent" points="697.5,-10 697.5,-30 717.5,-30 717.5,-10 697.5,-10"/>
<text text-anchor="start" x="721.17" y="-15.4" font-family="sans-serif" font-size="14.00"> &#160;Providers</text>
<polygon fill="#fb8072" stroke="transparent" points="793.5,-10 793.5,-30 813.5,-30 813.5,-10 793.5,-10"/>
<text text-anchor="start" x="817.23" y="-15.4" font-family="sans-serif" font-size="14.00"> &#160;Exports</text>
<g id="clust1" class="cluster">
<title>cluster_CameraMapModule</title>
<polygon fill="none" stroke="black" stroke-dasharray="1,5" points="8,-70 8,-268 1263,-268 1263,-70 8,-70"/>
</g>
<g id="clust10" class="cluster">
<title>cluster_CameraMapModule_providers</title>
<polygon fill="none" stroke="black" points="709,-78 709,-130 1255,-130 1255,-78 709,-78"/>
</g>
<g id="clust8" class="cluster">
<title>cluster_CameraMapModule_exports</title>
<polygon fill="none" stroke="black" points="271,-208 271,-260 970,-260 970,-208 271,-208"/>
</g>
<g id="clust2" class="cluster">
<title>cluster_CameraMapModule_declarations</title>
<polygon fill="none" stroke="black" points="16,-78 16,-130 701,-130 701,-78 16,-78"/>
</g>
<!-- CameraEventsComponent -->
<g id="node1" class="node">
<title>CameraEventsComponent</title>
<polygon fill="#ffffb3" stroke="black" points="693.47,-122 530.53,-122 530.53,-86 693.47,-86 693.47,-122"/>
<text text-anchor="middle" x="612" y="-99.8" font-family="Times,serif" font-size="14.00">CameraEventsComponent</text>
</g>
<!-- CameraMapModule -->
<g id="node5" class="node">
<title>CameraMapModule</title>
<polygon fill="#8dd3c7" stroke="black" points="676.24,-187 673.24,-191 652.24,-191 649.24,-187 547.76,-187 547.76,-151 676.24,-151 676.24,-187"/>
<text text-anchor="middle" x="612" y="-164.8" font-family="Times,serif" font-size="14.00">CameraMapModule</text>
</g>
<!-- CameraEventsComponent&#45;&gt;CameraMapModule -->
<g id="edge1" class="edge">
<title>CameraEventsComponent&#45;&gt;CameraMapModule</title>
<path fill="none" stroke="black" d="M612,-122.11C612,-122.11 612,-140.99 612,-140.99"/>
<polygon fill="black" stroke="black" points="608.5,-140.99 612,-150.99 615.5,-140.99 608.5,-140.99"/>
</g>
<!-- CameraFormComponent -->
<g id="node2" class="node">
<title>CameraFormComponent</title>
<polygon fill="#ffffb3" stroke="black" points="512.7,-122 357.3,-122 357.3,-86 512.7,-86 512.7,-122"/>
<text text-anchor="middle" x="435" y="-99.8" font-family="Times,serif" font-size="14.00">CameraFormComponent</text>
</g>
<!-- CameraFormComponent&#45;&gt;CameraMapModule -->
<g id="edge2" class="edge">
<title>CameraFormComponent&#45;&gt;CameraMapModule</title>
<path fill="none" stroke="black" d="M481.76,-122.01C481.76,-138.05 481.76,-159 481.76,-159 481.76,-159 537.65,-159 537.65,-159"/>
<polygon fill="black" stroke="black" points="537.65,-162.5 547.65,-159 537.64,-155.5 537.65,-162.5"/>
</g>
<!-- CameraListComponent -->
<g id="node3" class="node">
<title>CameraListComponent</title>
<polygon fill="#ffffb3" stroke="black" points="339.14,-122 192.86,-122 192.86,-86 339.14,-86 339.14,-122"/>
<text text-anchor="middle" x="266" y="-99.8" font-family="Times,serif" font-size="14.00">CameraListComponent</text>
</g>
<!-- CameraListComponent&#45;&gt;CameraMapModule -->
<g id="edge3" class="edge">
<title>CameraListComponent&#45;&gt;CameraMapModule</title>
<path fill="none" stroke="black" d="M309.15,-122.27C309.15,-140.56 309.15,-166 309.15,-166 309.15,-166 537.4,-166 537.4,-166"/>
<polygon fill="black" stroke="black" points="537.4,-169.5 547.4,-166 537.4,-162.5 537.4,-169.5"/>
</g>
<!-- CameraMapComponent -->
<g id="node4" class="node">
<title>CameraMapComponent</title>
<polygon fill="#ffffb3" stroke="black" points="174.02,-122 23.98,-122 23.98,-86 174.02,-86 174.02,-122"/>
<text text-anchor="middle" x="99" y="-99.8" font-family="Times,serif" font-size="14.00">CameraMapComponent</text>
</g>
<!-- CameraMapComponent&#45;&gt;CameraMapModule -->
<g id="edge4" class="edge">
<title>CameraMapComponent&#45;&gt;CameraMapModule</title>
<path fill="none" stroke="black" d="M99,-122.13C99,-142.57 99,-173 99,-173 99,-173 537.55,-173 537.55,-173"/>
<polygon fill="black" stroke="black" points="537.55,-176.5 547.55,-173 537.55,-169.5 537.55,-176.5"/>
</g>
<!-- CameraEventsComponent  -->
<g id="node6" class="node">
<title>CameraEventsComponent </title>
<polygon fill="#fb8072" stroke="black" points="962.47,-252 795.53,-252 795.53,-216 962.47,-216 962.47,-252"/>
<text text-anchor="middle" x="879" y="-229.8" font-family="Times,serif" font-size="14.00">CameraEventsComponent </text>
</g>
<!-- CameraMapModule&#45;&gt;CameraEventsComponent  -->
<g id="edge5" class="edge">
<title>CameraMapModule&#45;&gt;CameraEventsComponent </title>
<path fill="none" stroke="black" stroke-dasharray="5,2" d="M676.28,-180C738.77,-180 824.32,-180 824.32,-180 824.32,-180 824.32,-205.72 824.32,-205.72"/>
<polygon fill="black" stroke="black" points="820.82,-205.72 824.32,-215.72 827.82,-205.72 820.82,-205.72"/>
</g>
<!-- CameraFormComponent  -->
<g id="node7" class="node">
<title>CameraFormComponent </title>
<polygon fill="#fb8072" stroke="black" points="777.2,-252 618.8,-252 618.8,-216 777.2,-216 777.2,-252"/>
<text text-anchor="middle" x="698" y="-229.8" font-family="Times,serif" font-size="14.00">CameraFormComponent </text>
</g>
<!-- CameraMapModule&#45;&gt;CameraFormComponent  -->
<g id="edge6" class="edge">
<title>CameraMapModule&#45;&gt;CameraFormComponent </title>
<path fill="none" stroke="black" stroke-dasharray="5,2" d="M647.51,-187.11C647.51,-187.11 647.51,-205.99 647.51,-205.99"/>
<polygon fill="black" stroke="black" points="644.01,-205.99 647.51,-215.99 651.01,-205.99 644.01,-205.99"/>
</g>
<!-- CameraListComponent  -->
<g id="node8" class="node">
<title>CameraListComponent </title>
<polygon fill="#fb8072" stroke="black" points="601.14,-252 450.86,-252 450.86,-216 601.14,-216 601.14,-252"/>
<text text-anchor="middle" x="526" y="-229.8" font-family="Times,serif" font-size="14.00">CameraListComponent </text>
</g>
<!-- CameraMapModule&#45;&gt;CameraListComponent  -->
<g id="edge7" class="edge">
<title>CameraMapModule&#45;&gt;CameraListComponent </title>
<path fill="none" stroke="black" stroke-dasharray="5,2" d="M574.35,-187.11C574.35,-187.11 574.35,-205.99 574.35,-205.99"/>
<polygon fill="black" stroke="black" points="570.85,-205.99 574.35,-215.99 577.85,-205.99 570.85,-205.99"/>
</g>
<!-- CameraMapComponent  -->
<g id="node9" class="node">
<title>CameraMapComponent </title>
<polygon fill="#fb8072" stroke="black" points="433.02,-252 278.98,-252 278.98,-216 433.02,-216 433.02,-252"/>
<text text-anchor="middle" x="356" y="-229.8" font-family="Times,serif" font-size="14.00">CameraMapComponent </text>
</g>
<!-- CameraMapModule&#45;&gt;CameraMapComponent  -->
<g id="edge8" class="edge">
<title>CameraMapModule&#45;&gt;CameraMapComponent </title>
<path fill="none" stroke="black" stroke-dasharray="5,2" d="M547.54,-180C483.64,-180 395.21,-180 395.21,-180 395.21,-180 395.21,-205.72 395.21,-205.72"/>
<polygon fill="black" stroke="black" points="391.71,-205.72 395.21,-215.72 398.71,-205.72 391.71,-205.72"/>
</g>
<!-- CameraFormService -->
<g id="node10" class="node">
<title>CameraFormService</title>
<ellipse fill="#fdb462" stroke="black" cx="1156" cy="-104" rx="90.89" ry="18"/>
<text text-anchor="middle" x="1156" y="-99.8" font-family="Times,serif" font-size="14.00">CameraFormService</text>
</g>
<!-- CameraFormService&#45;&gt;CameraMapModule -->
<g id="edge9" class="edge">
<title>CameraFormService&#45;&gt;CameraMapModule</title>
<path fill="none" stroke="black" d="M1156,-122.13C1156,-142.57 1156,-173 1156,-173 1156,-173 686.27,-173 686.27,-173"/>
<polygon fill="black" stroke="black" points="686.27,-169.5 676.27,-173 686.27,-176.5 686.27,-169.5"/>
</g>
<!-- CameraMapService -->
<g id="node11" class="node">
<title>CameraMapService</title>
<ellipse fill="#fdb462" stroke="black" cx="959" cy="-104" rx="87.94" ry="18"/>
<text text-anchor="middle" x="959" y="-99.8" font-family="Times,serif" font-size="14.00">CameraMapService</text>
</g>
<!-- CameraMapService&#45;&gt;CameraMapModule -->
<g id="edge10" class="edge">
<title>CameraMapService&#45;&gt;CameraMapModule</title>
<path fill="none" stroke="black" d="M916.76,-119.97C916.76,-138.34 916.76,-166 916.76,-166 916.76,-166 686.26,-166 686.26,-166"/>
<polygon fill="black" stroke="black" points="686.26,-162.5 676.26,-166 686.26,-169.5 686.26,-162.5"/>
</g>
<!-- LoggerService -->
<g id="node12" class="node">
<title>LoggerService</title>
<ellipse fill="#fdb462" stroke="black" cx="785" cy="-104" rx="67.76" ry="18"/>
<text text-anchor="middle" x="785" y="-99.8" font-family="Times,serif" font-size="14.00">LoggerService</text>
</g>
<!-- LoggerService&#45;&gt;CameraMapModule -->
<g id="edge11" class="edge">
<title>LoggerService&#45;&gt;CameraMapModule</title>
<path fill="none" stroke="black" d="M747.24,-119.03C747.24,-135.31 747.24,-159 747.24,-159 747.24,-159 686.45,-159 686.45,-159"/>
<polygon fill="black" stroke="black" points="686.45,-155.5 676.45,-159 686.45,-162.5 686.45,-155.5"/>
</g>
</g>
</svg>
