<?xml version="1.0" encoding="UTF-8" standalone="no"?>
<!DOCTYPE svg PUBLIC "-//W3C//DTD SVG 1.1//EN"
 "http://www.w3.org/Graphics/SVG/1.1/DTD/svg11.dtd">
<!-- Generated by graphviz version 2.44.1 (20200629.0846)
 -->
<!-- Title: dependencies Pages: 1 -->
<svg width="906pt" height="284pt"
 viewBox="0.00 0.00 906.00 284.00" xmlns="http://www.w3.org/2000/svg" xmlns:xlink="http://www.w3.org/1999/xlink">
<g id="graph0" class="graph" transform="scale(1 1) rotate(0) translate(4 280)">
<title>dependencies</title>
<polygon fill="white" stroke="transparent" points="-4,4 -4,-280 902,-280 902,4 -4,4"/>
<text text-anchor="start" x="428.01" y="-42.4" font-family="sans-serif" font-weight="bold" font-size="14.00">Legend</text>
<polygon fill="#ffffb3" stroke="transparent" points="215,-10 215,-30 235,-30 235,-10 215,-10"/>
<text text-anchor="start" x="238.63" y="-15.4" font-family="sans-serif" font-size="14.00"> &#160;Declarations</text>
<polygon fill="#8dd3c7" stroke="transparent" points="328,-10 328,-30 348,-30 348,-10 328,-10"/>
<text text-anchor="start" x="351.73" y="-15.4" font-family="sans-serif" font-size="14.00"> &#160;Module</text>
<polygon fill="#80b1d3" stroke="transparent" points="414,-10 414,-30 434,-30 434,-10 414,-10"/>
<text text-anchor="start" x="437.78" y="-15.4" font-family="sans-serif" font-size="14.00"> &#160;Bootstrap</text>
<polygon fill="#fdb462" stroke="transparent" points="511,-10 511,-30 531,-30 531,-10 511,-10"/>
<text text-anchor="start" x="534.67" y="-15.4" font-family="sans-serif" font-size="14.00"> &#160;Providers</text>
<polygon fill="#fb8072" stroke="transparent" points="607,-10 607,-30 627,-30 627,-10 607,-10"/>
<text text-anchor="start" x="630.73" y="-15.4" font-family="sans-serif" font-size="14.00"> &#160;Exports</text>
<g id="clust1" class="cluster">
<title>cluster_CameraMapModule</title>
<polygon fill="none" stroke="black" stroke-dasharray="1,5" points="8,-70 8,-268 890,-268 890,-70 8,-70"/>
</g>
<g id="clust9" class="cluster">
<title>cluster_CameraMapModule_providers</title>
<polygon fill="none" stroke="black" points="536,-78 536,-130 882,-130 882,-78 536,-78"/>
</g>
<g id="clust7" class="cluster">
<title>cluster_CameraMapModule_exports</title>
<polygon fill="none" stroke="black" points="184,-208 184,-260 706,-260 706,-208 184,-208"/>
</g>
<g id="clust2" class="cluster">
<title>cluster_CameraMapModule_declarations</title>
<polygon fill="none" stroke="black" points="16,-78 16,-130 528,-130 528,-78 16,-78"/>
</g>
<!-- CameraEventsComponent -->
<g id="node1" class="node">
<title>CameraEventsComponent</title>
<polygon fill="#ffffb3" stroke="black" points="520.47,-122 357.53,-122 357.53,-86 520.47,-86 520.47,-122"/>
<text text-anchor="middle" x="439" y="-99.8" font-family="Times,serif" font-size="14.00">CameraEventsComponent</text>
</g>
<!-- CameraMapModule -->
<g id="node4" class="node">
<title>CameraMapModule</title>
<polygon fill="#8dd3c7" stroke="black" points="503.24,-187 500.24,-191 479.24,-191 476.24,-187 374.76,-187 374.76,-151 503.24,-151 503.24,-187"/>
<text text-anchor="middle" x="439" y="-164.8" font-family="Times,serif" font-size="14.00">CameraMapModule</text>
</g>
<!-- CameraEventsComponent&#45;&gt;CameraMapModule -->
<g id="edge1" class="edge">
<title>CameraEventsComponent&#45;&gt;CameraMapModule</title>
<path fill="none" stroke="black" d="M439,-122.11C439,-122.11 439,-140.99 439,-140.99"/>
<polygon fill="black" stroke="black" points="435.5,-140.99 439,-150.99 442.5,-140.99 435.5,-140.99"/>
</g>
<!-- CameraListComponent -->
<g id="node2" class="node">
<title>CameraListComponent</title>
<polygon fill="#ffffb3" stroke="black" points="339.14,-122 192.86,-122 192.86,-86 339.14,-86 339.14,-122"/>
<text text-anchor="middle" x="266" y="-99.8" font-family="Times,serif" font-size="14.00">CameraListComponent</text>
</g>
<!-- CameraListComponent&#45;&gt;CameraMapModule -->
<g id="edge2" class="edge">
<title>CameraListComponent&#45;&gt;CameraMapModule</title>
<path fill="none" stroke="black" d="M241.56,-122.03C241.56,-138.4 241.56,-160 241.56,-160 241.56,-160 364.62,-160 364.62,-160"/>
<polygon fill="black" stroke="black" points="364.62,-163.5 374.62,-160 364.62,-156.5 364.62,-163.5"/>
</g>
<!-- CameraMapComponent -->
<g id="node3" class="node">
<title>CameraMapComponent</title>
<polygon fill="#ffffb3" stroke="black" points="174.02,-122 23.98,-122 23.98,-86 174.02,-86 174.02,-122"/>
<text text-anchor="middle" x="99" y="-99.8" font-family="Times,serif" font-size="14.00">CameraMapComponent</text>
</g>
<!-- CameraMapComponent&#45;&gt;CameraMapModule -->
<g id="edge3" class="edge">
<title>CameraMapComponent&#45;&gt;CameraMapModule</title>
<path fill="none" stroke="black" d="M99,-122.11C99,-141.34 99,-169 99,-169 99,-169 364.65,-169 364.65,-169"/>
<polygon fill="black" stroke="black" points="364.65,-172.5 374.65,-169 364.65,-165.5 364.65,-172.5"/>
</g>
<!-- CameraEventsComponent  -->
<g id="node5" class="node">
<title>CameraEventsComponent </title>
<polygon fill="#fb8072" stroke="black" points="698.47,-252 531.53,-252 531.53,-216 698.47,-216 698.47,-252"/>
<text text-anchor="middle" x="615" y="-229.8" font-family="Times,serif" font-size="14.00">CameraEventsComponent </text>
</g>
<!-- CameraMapModule&#45;&gt;CameraEventsComponent  -->
<g id="edge4" class="edge">
<title>CameraMapModule&#45;&gt;CameraEventsComponent </title>
<path fill="none" stroke="black" stroke-dasharray="5,2" d="M503.34,-178C522.24,-178 537.94,-178 537.94,-178 537.94,-178 537.94,-205.97 537.94,-205.97"/>
<polygon fill="black" stroke="black" points="534.44,-205.97 537.94,-215.97 541.44,-205.97 534.44,-205.97"/>
</g>
<!-- CameraListComponent  -->
<g id="node6" class="node">
<title>CameraListComponent </title>
<polygon fill="#fb8072" stroke="black" points="514.14,-252 363.86,-252 363.86,-216 514.14,-216 514.14,-252"/>
<text text-anchor="middle" x="439" y="-229.8" font-family="Times,serif" font-size="14.00">CameraListComponent </text>
</g>
<!-- CameraMapModule&#45;&gt;CameraListComponent  -->
<g id="edge5" class="edge">
<title>CameraMapModule&#45;&gt;CameraListComponent </title>
<path fill="none" stroke="black" stroke-dasharray="5,2" d="M439,-187.11C439,-187.11 439,-205.99 439,-205.99"/>
<polygon fill="black" stroke="black" points="435.5,-205.99 439,-215.99 442.5,-205.99 435.5,-205.99"/>
</g>
<!-- CameraMapComponent  -->
<g id="node7" class="node">
<title>CameraMapComponent </title>
<polygon fill="#fb8072" stroke="black" points="346.02,-252 191.98,-252 191.98,-216 346.02,-216 346.02,-252"/>
<text text-anchor="middle" x="269" y="-229.8" font-family="Times,serif" font-size="14.00">CameraMapComponent </text>
</g>
<!-- CameraMapModule&#45;&gt;CameraMapComponent  -->
<g id="edge6" class="edge">
<title>CameraMapModule&#45;&gt;CameraMapComponent </title>
<path fill="none" stroke="black" stroke-dasharray="5,2" d="M374.7,-178C334.55,-178 290.44,-178 290.44,-178 290.44,-178 290.44,-205.97 290.44,-205.97"/>
<polygon fill="black" stroke="black" points="286.94,-205.97 290.44,-215.97 293.94,-205.97 286.94,-205.97"/>
</g>
<!-- CameraMapService -->
<g id="node8" class="node">
<title>CameraMapService</title>
<ellipse fill="#fdb462" stroke="black" cx="786" cy="-104" rx="87.94" ry="18"/>
<text text-anchor="middle" x="786" y="-99.8" font-family="Times,serif" font-size="14.00">CameraMapService</text>
</g>
<!-- CameraMapService&#45;&gt;CameraMapModule -->
<g id="edge7" class="edge">
<title>CameraMapService&#45;&gt;CameraMapModule</title>
<path fill="none" stroke="black" d="M786,-122.11C786,-141.34 786,-169 786,-169 786,-169 513.45,-169 513.45,-169"/>
<polygon fill="black" stroke="black" points="513.45,-165.5 503.45,-169 513.45,-172.5 513.45,-165.5"/>
</g>
<!-- LoggerService -->
<g id="node9" class="node">
<title>LoggerService</title>
<ellipse fill="#fdb462" stroke="black" cx="612" cy="-104" rx="67.76" ry="18"/>
<text text-anchor="middle" x="612" y="-99.8" font-family="Times,serif" font-size="14.00">LoggerService</text>
</g>
<!-- LoggerService&#45;&gt;CameraMapModule -->
<g id="edge8" class="edge">
<title>LoggerService&#45;&gt;CameraMapModule</title>
<path fill="none" stroke="black" d="M612,-122.03C612,-138.4 612,-160 612,-160 612,-160 513.42,-160 513.42,-160"/>
<polygon fill="black" stroke="black" points="513.42,-156.5 503.42,-160 513.42,-163.5 513.42,-156.5"/>
</g>
</g>
</svg>
