<?xml version="1.0" encoding="UTF-8" standalone="no"?>
<!DOCTYPE svg PUBLIC "-//W3C//DTD SVG 1.1//EN"
 "http://www.w3.org/Graphics/SVG/1.1/DTD/svg11.dtd">
<!-- Generated by graphviz version 2.44.1 (20200629.0846)
 -->
<!-- Title: dependencies Pages: 1 -->
<svg width="752pt" height="284pt"
 viewBox="0.00 0.00 752.00 284.00" xmlns="http://www.w3.org/2000/svg" xmlns:xlink="http://www.w3.org/1999/xlink">
<g id="graph0" class="graph" transform="scale(1 1) rotate(0) translate(4 280)">
<title>dependencies</title>
<polygon fill="white" stroke="transparent" points="-4,4 -4,-280 748,-280 748,4 -4,4"/>
<text text-anchor="start" x="351.01" y="-42.4" font-family="sans-serif" font-weight="bold" font-size="14.00">Legend</text>
<polygon fill="#ffffb3" stroke="transparent" points="138,-10 138,-30 158,-30 158,-10 138,-10"/>
<text text-anchor="start" x="161.63" y="-15.4" font-family="sans-serif" font-size="14.00"> &#160;Declarations</text>
<polygon fill="#8dd3c7" stroke="transparent" points="251,-10 251,-30 271,-30 271,-10 251,-10"/>
<text text-anchor="start" x="274.73" y="-15.4" font-family="sans-serif" font-size="14.00"> &#160;Module</text>
<polygon fill="#80b1d3" stroke="transparent" points="337,-10 337,-30 357,-30 357,-10 337,-10"/>
<text text-anchor="start" x="360.78" y="-15.4" font-family="sans-serif" font-size="14.00"> &#160;Bootstrap</text>
<polygon fill="#fdb462" stroke="transparent" points="434,-10 434,-30 454,-30 454,-10 434,-10"/>
<text text-anchor="start" x="457.67" y="-15.4" font-family="sans-serif" font-size="14.00"> &#160;Providers</text>
<polygon fill="#fb8072" stroke="transparent" points="530,-10 530,-30 550,-30 550,-10 530,-10"/>
<text text-anchor="start" x="553.73" y="-15.4" font-family="sans-serif" font-size="14.00"> &#160;Exports</text>
<g id="clust1" class="cluster">
<title>cluster_CameraMapModule</title>
<polygon fill="none" stroke="black" stroke-dasharray="1,5" points="8,-70 8,-268 736,-268 736,-70 8,-70"/>
</g>
<g id="clust7" class="cluster">
<title>cluster_CameraMapModule_exports</title>
<polygon fill="none" stroke="black" points="100,-208 100,-260 622,-260 622,-208 100,-208"/>
</g>
<g id="clust9" class="cluster">
<title>cluster_CameraMapModule_providers</title>
<polygon fill="none" stroke="black" points="536,-78 536,-130 728,-130 728,-78 536,-78"/>
</g>
<g id="clust2" class="cluster">
<title>cluster_CameraMapModule_declarations</title>
<polygon fill="none" stroke="black" points="16,-78 16,-130 528,-130 528,-78 16,-78"/>
</g>
<!-- CameraEventsComponent -->
<g id="node1" class="node">
<title>CameraEventsComponent</title>
<polygon fill="#ffffb3" stroke="black" points="520.47,-122 357.53,-122 357.53,-86 520.47,-86 520.47,-122"/>
<text text-anchor="middle" x="439" y="-99.8" font-family="Times,serif" font-size="14.00">CameraEventsComponent</text>
</g>
<!-- CameraMapModule -->
<g id="node4" class="node">
<title>CameraMapModule</title>
<polygon fill="#8dd3c7" stroke="black" points="419.24,-187 416.24,-191 395.24,-191 392.24,-187 290.76,-187 290.76,-151 419.24,-151 419.24,-187"/>
<text text-anchor="middle" x="355" y="-164.8" font-family="Times,serif" font-size="14.00">CameraMapModule</text>
</g>
<!-- CameraEventsComponent&#45;&gt;CameraMapModule -->
<g id="edge1" class="edge">
<title>CameraEventsComponent&#45;&gt;CameraMapModule</title>
<path fill="none" stroke="black" d="M388.44,-122.11C388.44,-122.11 388.44,-140.99 388.44,-140.99"/>
<polygon fill="black" stroke="black" points="384.94,-140.99 388.44,-150.99 391.94,-140.99 384.94,-140.99"/>
</g>
<!-- CameraListComponent -->
<g id="node2" class="node">
<title>CameraListComponent</title>
<polygon fill="#ffffb3" stroke="black" points="339.14,-122 192.86,-122 192.86,-86 339.14,-86 339.14,-122"/>
<text text-anchor="middle" x="266" y="-99.8" font-family="Times,serif" font-size="14.00">CameraListComponent</text>
</g>
<!-- CameraListComponent&#45;&gt;CameraMapModule -->
<g id="edge2" class="edge">
<title>CameraListComponent&#45;&gt;CameraMapModule</title>
<path fill="none" stroke="black" d="M314.98,-122.11C314.98,-122.11 314.98,-140.99 314.98,-140.99"/>
<polygon fill="black" stroke="black" points="311.48,-140.99 314.98,-150.99 318.48,-140.99 311.48,-140.99"/>
</g>
<!-- CameraMapComponent -->
<g id="node3" class="node">
<title>CameraMapComponent</title>
<polygon fill="#ffffb3" stroke="black" points="174.02,-122 23.98,-122 23.98,-86 174.02,-86 174.02,-122"/>
<text text-anchor="middle" x="99" y="-99.8" font-family="Times,serif" font-size="14.00">CameraMapComponent</text>
</g>
<!-- CameraMapComponent&#45;&gt;CameraMapModule -->
<g id="edge3" class="edge">
<title>CameraMapComponent&#45;&gt;CameraMapModule</title>
<path fill="none" stroke="black" d="M141.12,-122.02C141.12,-139.37 141.12,-163 141.12,-163 141.12,-163 280.54,-163 280.54,-163"/>
<polygon fill="black" stroke="black" points="280.54,-166.5 290.54,-163 280.54,-159.5 280.54,-166.5"/>
</g>
<!-- CameraEventsComponent  -->
<g id="node5" class="node">
<title>CameraEventsComponent </title>
<polygon fill="#fb8072" stroke="black" points="614.47,-252 447.53,-252 447.53,-216 614.47,-216 614.47,-252"/>
<text text-anchor="middle" x="531" y="-229.8" font-family="Times,serif" font-size="14.00">CameraEventsComponent </text>
</g>
<!-- CameraMapModule&#45;&gt;CameraEventsComponent  -->
<g id="edge4" class="edge">
<title>CameraMapModule&#45;&gt;CameraEventsComponent </title>
<path fill="none" stroke="black" stroke-dasharray="5,2" d="M419.56,-175C451.84,-175 484.12,-175 484.12,-175 484.12,-175 484.12,-205.98 484.12,-205.98"/>
<polygon fill="black" stroke="black" points="480.63,-205.98 484.12,-215.98 487.63,-205.98 480.63,-205.98"/>
</g>
<!-- CameraListComponent  -->
<g id="node6" class="node">
<title>CameraListComponent </title>
<polygon fill="#fb8072" stroke="black" points="430.14,-252 279.86,-252 279.86,-216 430.14,-216 430.14,-252"/>
<text text-anchor="middle" x="355" y="-229.8" font-family="Times,serif" font-size="14.00">CameraListComponent </text>
</g>
<!-- CameraMapModule&#45;&gt;CameraListComponent  -->
<g id="edge5" class="edge">
<title>CameraMapModule&#45;&gt;CameraListComponent </title>
<path fill="none" stroke="black" stroke-dasharray="5,2" d="M355,-187.11C355,-187.11 355,-205.99 355,-205.99"/>
<polygon fill="black" stroke="black" points="351.5,-205.99 355,-215.99 358.5,-205.99 351.5,-205.99"/>
</g>
<!-- CameraMapComponent  -->
<g id="node7" class="node">
<title>CameraMapComponent </title>
<polygon fill="#fb8072" stroke="black" points="262.02,-252 107.98,-252 107.98,-216 262.02,-216 262.02,-252"/>
<text text-anchor="middle" x="185" y="-229.8" font-family="Times,serif" font-size="14.00">CameraMapComponent </text>
</g>
<!-- CameraMapModule&#45;&gt;CameraMapComponent  -->
<g id="edge6" class="edge">
<title>CameraMapModule&#45;&gt;CameraMapComponent </title>
<path fill="none" stroke="black" stroke-dasharray="5,2" d="M290.42,-175C258.76,-175 227.35,-175 227.35,-175 227.35,-175 227.35,-205.98 227.35,-205.98"/>
<polygon fill="black" stroke="black" points="223.85,-205.98 227.35,-215.98 230.85,-205.98 223.85,-205.98"/>
</g>
<!-- CameraMapService -->
<g id="node8" class="node">
<title>CameraMapService</title>
<ellipse fill="#fdb462" stroke="black" cx="632" cy="-104" rx="87.94" ry="18"/>
<text text-anchor="middle" x="632" y="-99.8" font-family="Times,serif" font-size="14.00">CameraMapService</text>
</g>
<!-- CameraMapService&#45;&gt;CameraMapModule -->
<g id="edge7" class="edge">
<title>CameraMapService&#45;&gt;CameraMapModule</title>
<path fill="none" stroke="black" d="M579.26,-118.58C579.26,-136.06 579.26,-163 579.26,-163 579.26,-163 429.26,-163 429.26,-163"/>
<polygon fill="black" stroke="black" points="429.26,-159.5 419.26,-163 429.26,-166.5 429.26,-159.5"/>
</g>
</g>
</svg>
