<?xml version="1.0" encoding="UTF-8" standalone="no"?>
<!DOCTYPE svg PUBLIC "-//W3C//DTD SVG 1.1//EN"
 "http://www.w3.org/Graphics/SVG/1.1/DTD/svg11.dtd">
<!-- Generated by graphviz version 2.44.1 (20200629.0846)
 -->
<!-- Title: dependencies Pages: 1 -->
<svg width="1436pt" height="360pt"
 viewBox="0.00 0.00 1436.00 360.00" xmlns="http://www.w3.org/2000/svg" xmlns:xlink="http://www.w3.org/1999/xlink">
<g id="graph0" class="graph" transform="scale(1 1) rotate(0) translate(4 356)">
<title>dependencies</title>
<polygon fill="white" stroke="transparent" points="-4,4 -4,-356 1432,-356 1432,4 -4,4"/>
<text text-anchor="start" x="693.01" y="-42.4" font-family="sans-serif" font-weight="bold" font-size="14.00">Legend</text>
<polygon fill="#ffffb3" stroke="transparent" points="480,-10 480,-30 500,-30 500,-10 480,-10"/>
<text text-anchor="start" x="503.63" y="-15.4" font-family="sans-serif" font-size="14.00"> &#160;Declarations</text>
<polygon fill="#8dd3c7" stroke="transparent" points="593,-10 593,-30 613,-30 613,-10 593,-10"/>
<text text-anchor="start" x="616.73" y="-15.4" font-family="sans-serif" font-size="14.00"> &#160;Module</text>
<polygon fill="#80b1d3" stroke="transparent" points="679,-10 679,-30 699,-30 699,-10 679,-10"/>
<text text-anchor="start" x="702.78" y="-15.4" font-family="sans-serif" font-size="14.00"> &#160;Bootstrap</text>
<polygon fill="#fdb462" stroke="transparent" points="776,-10 776,-30 796,-30 796,-10 776,-10"/>
<text text-anchor="start" x="799.67" y="-15.4" font-family="sans-serif" font-size="14.00"> &#160;Providers</text>
<polygon fill="#fb8072" stroke="transparent" points="872,-10 872,-30 892,-30 892,-10 872,-10"/>
<text text-anchor="start" x="895.73" y="-15.4" font-family="sans-serif" font-size="14.00"> &#160;Exports</text>
<g id="clust1" class="cluster">
<title>cluster_AppModule</title>
<polygon fill="none" stroke="black" stroke-dasharray="1,5" points="633,-146 633,-344 1063,-344 1063,-146 633,-146"/>
</g>
<g id="clust2" class="cluster">
<title>cluster_AppModule_declarations</title>
<polygon fill="none" stroke="black" points="793,-154 793,-206 1055,-206 1055,-154 793,-154"/>
</g>
<g id="clust5" class="cluster">
<title>cluster_AppModule_imports</title>
<polygon fill="none" stroke="black" points="641,-154 641,-206 785,-206 785,-154 641,-154"/>
</g>
<g id="clust7" class="cluster">
<title>cluster_AppModule_bootstrap</title>
<polygon fill="none" stroke="black" points="800,-284 800,-336 924,-336 924,-284 800,-284"/>
</g>
<g id="clust15" class="cluster">
<title>cluster_CameraMapModule</title>
<polygon fill="none" stroke="black" stroke-dasharray="1,5" points="8,-70 8,-138 1420,-138 1420,-70 8,-70"/>
</g>
<g id="clust16" class="cluster">
<title>cluster_CameraMapModule_declarations</title>
<polygon fill="none" stroke="black" points="900,-78 900,-130 1412,-130 1412,-78 900,-78"/>
</g>
<g id="clust21" class="cluster">
<title>cluster_CameraMapModule_exports</title>
<polygon fill="none" stroke="black" points="370,-78 370,-130 892,-130 892,-78 370,-78"/>
</g>
<g id="clust23" class="cluster">
<title>cluster_CameraMapModule_providers</title>
<polygon fill="none" stroke="black" points="16,-78 16,-130 362,-130 362,-78 16,-78"/>
</g>
<!-- AppComponent -->
<g id="node1" class="node">
<title>AppComponent</title>
<polygon fill="#ffffb3" stroke="black" points="1046.94,-198 941.06,-198 941.06,-162 1046.94,-162 1046.94,-198"/>
<text text-anchor="middle" x="994" y="-175.8" font-family="Times,serif" font-size="14.00">AppComponent</text>
</g>
<!-- AppModule -->
<g id="node3" class="node">
<title>AppModule</title>
<polygon fill="#8dd3c7" stroke="black" points="903.66,-263 900.66,-267 879.66,-267 876.66,-263 820.34,-263 820.34,-227 903.66,-227 903.66,-263"/>
<text text-anchor="middle" x="862" y="-240.8" font-family="Times,serif" font-size="14.00">AppModule</text>
</g>
<!-- AppComponent&#45;&gt;AppModule -->
<g id="edge1" class="edge">
<title>AppComponent&#45;&gt;AppModule</title>
<path fill="none" stroke="black" d="M994,-198.11C994,-217.34 994,-245 994,-245 994,-245 913.77,-245 913.77,-245"/>
<polygon fill="black" stroke="black" points="913.77,-241.5 903.77,-245 913.77,-248.5 913.77,-241.5"/>
</g>
<!-- NavbarComponent -->
<g id="node2" class="node">
<title>NavbarComponent</title>
<polygon fill="#ffffb3" stroke="black" points="923.03,-198 800.97,-198 800.97,-162 923.03,-162 923.03,-198"/>
<text text-anchor="middle" x="862" y="-175.8" font-family="Times,serif" font-size="14.00">NavbarComponent</text>
</g>
<!-- NavbarComponent&#45;&gt;AppModule -->
<g id="edge2" class="edge">
<title>NavbarComponent&#45;&gt;AppModule</title>
<path fill="none" stroke="black" d="M862,-198.11C862,-198.11 862,-216.99 862,-216.99"/>
<polygon fill="black" stroke="black" points="858.5,-216.99 862,-226.99 865.5,-216.99 858.5,-216.99"/>
</g>
<!-- AppComponent  -->
<g id="node5" class="node">
<title>AppComponent </title>
<polygon fill="#80b1d3" stroke="black" points="916.44,-328 807.56,-328 807.56,-292 916.44,-292 916.44,-328"/>
<text text-anchor="middle" x="862" y="-305.8" font-family="Times,serif" font-size="14.00">AppComponent </text>
</g>
<!-- AppModule&#45;&gt;AppComponent  -->
<g id="edge4" class="edge">
<title>AppModule&#45;&gt;AppComponent </title>
<path fill="none" stroke="black" stroke-dasharray="1,5" d="M862,-263.11C862,-263.11 862,-281.99 862,-281.99"/>
<polygon fill="black" stroke="black" points="858.5,-281.99 862,-291.99 865.5,-281.99 858.5,-281.99"/>
</g>
<!-- CameraMapModule -->
<g id="node4" class="node">
<title>CameraMapModule</title>
<polygon fill="#8dd3c7" stroke="black" points="777.24,-198 774.24,-202 753.24,-202 750.24,-198 648.76,-198 648.76,-162 777.24,-162 777.24,-198"/>
<text text-anchor="middle" x="713" y="-175.8" font-family="Times,serif" font-size="14.00">CameraMapModule</text>
</g>
<!-- CameraMapModule&#45;&gt;AppModule -->
<g id="edge3" class="edge">
<title>CameraMapModule&#45;&gt;AppModule</title>
<path fill="none" stroke="black" d="M713,-198.11C713,-217.34 713,-245 713,-245 713,-245 810.1,-245 810.1,-245"/>
<polygon fill="black" stroke="black" points="810.1,-248.5 820.1,-245 810.1,-241.5 810.1,-248.5"/>
</g>
<!-- CameraEventsComponent  -->
<g id="node9" class="node">
<title>CameraEventsComponent </title>
<polygon fill="#fb8072" stroke="black" points="884.47,-122 717.53,-122 717.53,-86 884.47,-86 884.47,-122"/>
<text text-anchor="middle" x="801" y="-99.8" font-family="Times,serif" font-size="14.00">CameraEventsComponent </text>
</g>
<!-- CameraMapModule&#45;&gt;CameraEventsComponent  -->
<g id="edge8" class="edge">
<title>CameraMapModule&#45;&gt;CameraEventsComponent </title>
<path fill="none" stroke="black" stroke-dasharray="5,2" d="M729.69,-161.99C729.69,-161.99 729.69,-132.15 729.69,-132.15"/>
<polygon fill="black" stroke="black" points="733.19,-132.15 729.69,-122.15 726.19,-132.15 733.19,-132.15"/>
</g>
<!-- CameraListComponent  -->
<g id="node10" class="node">
<title>CameraListComponent </title>
<polygon fill="#fb8072" stroke="black" points="700.14,-122 549.86,-122 549.86,-86 700.14,-86 700.14,-122"/>
<text text-anchor="middle" x="625" y="-99.8" font-family="Times,serif" font-size="14.00">CameraListComponent </text>
</g>
<!-- CameraMapModule&#45;&gt;CameraListComponent  -->
<g id="edge9" class="edge">
<title>CameraMapModule&#45;&gt;CameraListComponent </title>
<path fill="none" stroke="black" stroke-dasharray="5,2" d="M674.35,-161.99C674.35,-161.99 674.35,-132.15 674.35,-132.15"/>
<polygon fill="black" stroke="black" points="677.85,-132.15 674.35,-122.15 670.85,-132.15 677.85,-132.15"/>
</g>
<!-- CameraMapComponent  -->
<g id="node11" class="node">
<title>CameraMapComponent </title>
<polygon fill="#fb8072" stroke="black" points="532.02,-122 377.98,-122 377.98,-86 532.02,-86 532.02,-122"/>
<text text-anchor="middle" x="455" y="-99.8" font-family="Times,serif" font-size="14.00">CameraMapComponent </text>
</g>
<!-- CameraMapModule&#45;&gt;CameraMapComponent  -->
<g id="edge10" class="edge">
<title>CameraMapModule&#45;&gt;CameraMapComponent </title>
<path fill="none" stroke="black" stroke-dasharray="5,2" d="M648.56,-171C572.14,-171 455,-171 455,-171 455,-171 455,-132.31 455,-132.31"/>
<polygon fill="black" stroke="black" points="458.5,-132.31 455,-122.31 451.5,-132.31 458.5,-132.31"/>
</g>
<!-- CameraEventsComponent -->
<g id="node6" class="node">
<title>CameraEventsComponent</title>
<polygon fill="#ffffb3" stroke="black" points="1404.47,-122 1241.53,-122 1241.53,-86 1404.47,-86 1404.47,-122"/>
<text text-anchor="middle" x="1323" y="-99.8" font-family="Times,serif" font-size="14.00">CameraEventsComponent</text>
</g>
<!-- CameraEventsComponent&#45;&gt;CameraMapModule -->
<g id="edge5" class="edge">
<title>CameraEventsComponent&#45;&gt;CameraMapModule</title>
<path fill="none" stroke="black" d="M1323,-122.15C1323,-135.74 1323,-152 1323,-152 1323,-152 765.45,-152 765.45,-152 765.45,-152 765.45,-152.98 765.45,-152.98"/>
<polygon fill="black" stroke="black" points="761.95,-151.79 765.45,-161.79 768.95,-151.79 761.95,-151.79"/>
</g>
<!-- CameraListComponent -->
<g id="node7" class="node">
<title>CameraListComponent</title>
<polygon fill="#ffffb3" stroke="black" points="1223.14,-122 1076.86,-122 1076.86,-86 1223.14,-86 1223.14,-122"/>
<text text-anchor="middle" x="1150" y="-99.8" font-family="Times,serif" font-size="14.00">CameraListComponent</text>
</g>
<!-- CameraListComponent&#45;&gt;CameraMapModule -->
<g id="edge6" class="edge">
<title>CameraListComponent&#45;&gt;CameraMapModule</title>
<path fill="none" stroke="black" d="M1150,-122.11C1150,-131.9 1150,-142 1150,-142 1150,-142 753.53,-142 753.53,-142 753.53,-142 753.53,-151.89 753.53,-151.89"/>
<polygon fill="black" stroke="black" points="750.03,-151.89 753.53,-161.89 757.03,-151.89 750.03,-151.89"/>
</g>
<!-- CameraMapComponent -->
<g id="node8" class="node">
<title>CameraMapComponent</title>
<polygon fill="#ffffb3" stroke="black" points="1058.02,-122 907.98,-122 907.98,-86 1058.02,-86 1058.02,-122"/>
<text text-anchor="middle" x="983" y="-99.8" font-family="Times,serif" font-size="14.00">CameraMapComponent</text>
</g>
<!-- CameraMapComponent&#45;&gt;CameraMapModule -->
<g id="edge7" class="edge">
<title>CameraMapComponent&#45;&gt;CameraMapModule</title>
<path fill="none" stroke="black" d="M915.5,-122.21C915.5,-127.55 915.5,-132 915.5,-132 915.5,-132 741.61,-132 741.61,-132 741.61,-132 741.61,-151.85 741.61,-151.85"/>
<polygon fill="black" stroke="black" points="738.11,-151.85 741.61,-161.85 745.11,-151.85 738.11,-151.85"/>
</g>
<!-- CameraMapService -->
<g id="node12" class="node">
<title>CameraMapService</title>
<ellipse fill="#fdb462" stroke="black" cx="266" cy="-104" rx="87.94" ry="18"/>
<text text-anchor="middle" x="266" y="-99.8" font-family="Times,serif" font-size="14.00">CameraMapService</text>
</g>
<!-- CameraMapService&#45;&gt;CameraMapModule -->
<g id="edge11" class="edge">
<title>CameraMapService&#45;&gt;CameraMapModule</title>
<path fill="none" stroke="black" d="M266,-122.01C266,-144.49 266,-180 266,-180 266,-180 638.48,-180 638.48,-180"/>
<polygon fill="black" stroke="black" points="638.48,-183.5 648.48,-180 638.48,-176.5 638.48,-183.5"/>
</g>
<!-- LoggerService -->
<g id="node13" class="node">
<title>LoggerService</title>
<ellipse fill="#fdb462" stroke="black" cx="92" cy="-104" rx="67.76" ry="18"/>
<text text-anchor="middle" x="92" y="-99.8" font-family="Times,serif" font-size="14.00">LoggerService</text>
</g>
<!-- LoggerService&#45;&gt;CameraMapModule -->
<g id="edge12" class="edge">
<title>LoggerService&#45;&gt;CameraMapModule</title>
<path fill="none" stroke="black" d="M92,-122.03C92,-146.98 92,-189 92,-189 92,-189 638.59,-189 638.59,-189"/>
<polygon fill="black" stroke="black" points="638.59,-192.5 648.59,-189 638.59,-185.5 638.59,-192.5"/>
</g>
</g>
</svg>
