<?xml version="1.0" encoding="UTF-8" standalone="no"?>
<!DOCTYPE svg PUBLIC "-//W3C//DTD SVG 1.1//EN"
 "http://www.w3.org/Graphics/SVG/1.1/DTD/svg11.dtd">
<!-- Generated by graphviz version 2.44.1 (20200629.0846)
 -->
<!-- Title: dependencies Pages: 1 -->
<svg width="1282pt" height="360pt"
 viewBox="0.00 0.00 1282.00 360.00" xmlns="http://www.w3.org/2000/svg" xmlns:xlink="http://www.w3.org/1999/xlink">
<g id="graph0" class="graph" transform="scale(1 1) rotate(0) translate(4 356)">
<title>dependencies</title>
<polygon fill="white" stroke="transparent" points="-4,4 -4,-356 1278,-356 1278,4 -4,4"/>
<text text-anchor="start" x="616.01" y="-42.4" font-family="sans-serif" font-weight="bold" font-size="14.00">Legend</text>
<polygon fill="#ffffb3" stroke="transparent" points="403,-10 403,-30 423,-30 423,-10 403,-10"/>
<text text-anchor="start" x="426.63" y="-15.4" font-family="sans-serif" font-size="14.00"> &#160;Declarations</text>
<polygon fill="#8dd3c7" stroke="transparent" points="516,-10 516,-30 536,-30 536,-10 516,-10"/>
<text text-anchor="start" x="539.73" y="-15.4" font-family="sans-serif" font-size="14.00"> &#160;Module</text>
<polygon fill="#80b1d3" stroke="transparent" points="602,-10 602,-30 622,-30 622,-10 602,-10"/>
<text text-anchor="start" x="625.78" y="-15.4" font-family="sans-serif" font-size="14.00"> &#160;Bootstrap</text>
<polygon fill="#fdb462" stroke="transparent" points="699,-10 699,-30 719,-30 719,-10 699,-10"/>
<text text-anchor="start" x="722.67" y="-15.4" font-family="sans-serif" font-size="14.00"> &#160;Providers</text>
<polygon fill="#fb8072" stroke="transparent" points="795,-10 795,-30 815,-30 815,-10 795,-10"/>
<text text-anchor="start" x="818.73" y="-15.4" font-family="sans-serif" font-size="14.00"> &#160;Exports</text>
<g id="clust1" class="cluster">
<title>cluster_AppModule</title>
<polygon fill="none" stroke="black" stroke-dasharray="1,5" points="567,-146 567,-344 997,-344 997,-146 567,-146"/>
</g>
<g id="clust2" class="cluster">
<title>cluster_AppModule_declarations</title>
<polygon fill="none" stroke="black" points="727,-154 727,-206 989,-206 989,-154 727,-154"/>
</g>
<g id="clust5" class="cluster">
<title>cluster_AppModule_imports</title>
<polygon fill="none" stroke="black" points="575,-154 575,-206 719,-206 719,-154 575,-154"/>
</g>
<g id="clust7" class="cluster">
<title>cluster_AppModule_bootstrap</title>
<polygon fill="none" stroke="black" points="734,-284 734,-336 858,-336 858,-284 734,-284"/>
</g>
<g id="clust15" class="cluster">
<title>cluster_CameraMapModule</title>
<polygon fill="none" stroke="black" stroke-dasharray="1,5" points="8,-70 8,-138 1266,-138 1266,-70 8,-70"/>
</g>
<g id="clust16" class="cluster">
<title>cluster_CameraMapModule_declarations</title>
<polygon fill="none" stroke="black" points="746,-78 746,-130 1258,-130 1258,-78 746,-78"/>
</g>
<g id="clust21" class="cluster">
<title>cluster_CameraMapModule_exports</title>
<polygon fill="none" stroke="black" points="216,-78 216,-130 738,-130 738,-78 216,-78"/>
</g>
<g id="clust23" class="cluster">
<title>cluster_CameraMapModule_providers</title>
<polygon fill="none" stroke="black" points="16,-78 16,-130 208,-130 208,-78 16,-78"/>
</g>
<!-- AppComponent -->
<g id="node1" class="node">
<title>AppComponent</title>
<polygon fill="#ffffb3" stroke="black" points="980.94,-198 875.06,-198 875.06,-162 980.94,-162 980.94,-198"/>
<text text-anchor="middle" x="928" y="-175.8" font-family="Times,serif" font-size="14.00">AppComponent</text>
</g>
<!-- AppModule -->
<g id="node3" class="node">
<title>AppModule</title>
<polygon fill="#8dd3c7" stroke="black" points="837.66,-263 834.66,-267 813.66,-267 810.66,-263 754.34,-263 754.34,-227 837.66,-227 837.66,-263"/>
<text text-anchor="middle" x="796" y="-240.8" font-family="Times,serif" font-size="14.00">AppModule</text>
</g>
<!-- AppComponent&#45;&gt;AppModule -->
<g id="edge1" class="edge">
<title>AppComponent&#45;&gt;AppModule</title>
<path fill="none" stroke="black" d="M928,-198.11C928,-217.34 928,-245 928,-245 928,-245 847.77,-245 847.77,-245"/>
<polygon fill="black" stroke="black" points="847.77,-241.5 837.77,-245 847.77,-248.5 847.77,-241.5"/>
</g>
<!-- NavbarComponent -->
<g id="node2" class="node">
<title>NavbarComponent</title>
<polygon fill="#ffffb3" stroke="black" points="857.03,-198 734.97,-198 734.97,-162 857.03,-162 857.03,-198"/>
<text text-anchor="middle" x="796" y="-175.8" font-family="Times,serif" font-size="14.00">NavbarComponent</text>
</g>
<!-- NavbarComponent&#45;&gt;AppModule -->
<g id="edge2" class="edge">
<title>NavbarComponent&#45;&gt;AppModule</title>
<path fill="none" stroke="black" d="M796,-198.11C796,-198.11 796,-216.99 796,-216.99"/>
<polygon fill="black" stroke="black" points="792.5,-216.99 796,-226.99 799.5,-216.99 792.5,-216.99"/>
</g>
<!-- AppComponent  -->
<g id="node5" class="node">
<title>AppComponent </title>
<polygon fill="#80b1d3" stroke="black" points="850.44,-328 741.56,-328 741.56,-292 850.44,-292 850.44,-328"/>
<text text-anchor="middle" x="796" y="-305.8" font-family="Times,serif" font-size="14.00">AppComponent </text>
</g>
<!-- AppModule&#45;&gt;AppComponent  -->
<g id="edge4" class="edge">
<title>AppModule&#45;&gt;AppComponent </title>
<path fill="none" stroke="black" stroke-dasharray="1,5" d="M796,-263.11C796,-263.11 796,-281.99 796,-281.99"/>
<polygon fill="black" stroke="black" points="792.5,-281.99 796,-291.99 799.5,-281.99 792.5,-281.99"/>
</g>
<!-- CameraMapModule -->
<g id="node4" class="node">
<title>CameraMapModule</title>
<polygon fill="#8dd3c7" stroke="black" points="711.24,-198 708.24,-202 687.24,-202 684.24,-198 582.76,-198 582.76,-162 711.24,-162 711.24,-198"/>
<text text-anchor="middle" x="647" y="-175.8" font-family="Times,serif" font-size="14.00">CameraMapModule</text>
</g>
<!-- CameraMapModule&#45;&gt;AppModule -->
<g id="edge3" class="edge">
<title>CameraMapModule&#45;&gt;AppModule</title>
<path fill="none" stroke="black" d="M647,-198.11C647,-217.34 647,-245 647,-245 647,-245 744.1,-245 744.1,-245"/>
<polygon fill="black" stroke="black" points="744.1,-248.5 754.1,-245 744.1,-241.5 744.1,-248.5"/>
</g>
<!-- CameraEventsComponent  -->
<g id="node9" class="node">
<title>CameraEventsComponent </title>
<polygon fill="#fb8072" stroke="black" points="730.47,-122 563.53,-122 563.53,-86 730.47,-86 730.47,-122"/>
<text text-anchor="middle" x="647" y="-99.8" font-family="Times,serif" font-size="14.00">CameraEventsComponent </text>
</g>
<!-- CameraMapModule&#45;&gt;CameraEventsComponent  -->
<g id="edge8" class="edge">
<title>CameraMapModule&#45;&gt;CameraEventsComponent </title>
<path fill="none" stroke="black" stroke-dasharray="5,2" d="M608.38,-161.99C608.38,-161.99 608.38,-132.15 608.38,-132.15"/>
<polygon fill="black" stroke="black" points="611.88,-132.15 608.38,-122.15 604.88,-132.15 611.88,-132.15"/>
</g>
<!-- CameraListComponent  -->
<g id="node10" class="node">
<title>CameraListComponent </title>
<polygon fill="#fb8072" stroke="black" points="546.14,-122 395.86,-122 395.86,-86 546.14,-86 546.14,-122"/>
<text text-anchor="middle" x="471" y="-99.8" font-family="Times,serif" font-size="14.00">CameraListComponent </text>
</g>
<!-- CameraMapModule&#45;&gt;CameraListComponent  -->
<g id="edge9" class="edge">
<title>CameraMapModule&#45;&gt;CameraListComponent </title>
<path fill="none" stroke="black" stroke-dasharray="5,2" d="M582.46,-171C532.23,-171 471,-171 471,-171 471,-171 471,-132.31 471,-132.31"/>
<polygon fill="black" stroke="black" points="474.5,-132.31 471,-122.31 467.5,-132.31 474.5,-132.31"/>
</g>
<!-- CameraMapComponent  -->
<g id="node11" class="node">
<title>CameraMapComponent </title>
<polygon fill="#fb8072" stroke="black" points="378.02,-122 223.98,-122 223.98,-86 378.02,-86 378.02,-122"/>
<text text-anchor="middle" x="301" y="-99.8" font-family="Times,serif" font-size="14.00">CameraMapComponent </text>
</g>
<!-- CameraMapModule&#45;&gt;CameraMapComponent  -->
<g id="edge10" class="edge">
<title>CameraMapModule&#45;&gt;CameraMapComponent </title>
<path fill="none" stroke="black" stroke-dasharray="5,2" d="M582.73,-180C482.67,-180 301,-180 301,-180 301,-180 301,-132.01 301,-132.01"/>
<polygon fill="black" stroke="black" points="304.5,-132.01 301,-122.01 297.5,-132.01 304.5,-132.01"/>
</g>
<!-- CameraEventsComponent -->
<g id="node6" class="node">
<title>CameraEventsComponent</title>
<polygon fill="#ffffb3" stroke="black" points="1250.47,-122 1087.53,-122 1087.53,-86 1250.47,-86 1250.47,-122"/>
<text text-anchor="middle" x="1169" y="-99.8" font-family="Times,serif" font-size="14.00">CameraEventsComponent</text>
</g>
<!-- CameraEventsComponent&#45;&gt;CameraMapModule -->
<g id="edge5" class="edge">
<title>CameraEventsComponent&#45;&gt;CameraMapModule</title>
<path fill="none" stroke="black" d="M1169,-122.15C1169,-135.74 1169,-152 1169,-152 1169,-152 685.62,-152 685.62,-152 685.62,-152 685.62,-152.98 685.62,-152.98"/>
<polygon fill="black" stroke="black" points="682.12,-151.79 685.62,-161.79 689.12,-151.79 682.12,-151.79"/>
</g>
<!-- CameraListComponent -->
<g id="node7" class="node">
<title>CameraListComponent</title>
<polygon fill="#ffffb3" stroke="black" points="1069.14,-122 922.86,-122 922.86,-86 1069.14,-86 1069.14,-122"/>
<text text-anchor="middle" x="996" y="-99.8" font-family="Times,serif" font-size="14.00">CameraListComponent</text>
</g>
<!-- CameraListComponent&#45;&gt;CameraMapModule -->
<g id="edge6" class="edge">
<title>CameraListComponent&#45;&gt;CameraMapModule</title>
<path fill="none" stroke="black" d="M951.7,-122.11C951.7,-131.9 951.7,-142 951.7,-142 951.7,-142 659.87,-142 659.87,-142 659.87,-142 659.87,-151.89 659.87,-151.89"/>
<polygon fill="black" stroke="black" points="656.37,-151.89 659.87,-161.89 663.37,-151.89 656.37,-151.89"/>
</g>
<!-- CameraMapComponent -->
<g id="node8" class="node">
<title>CameraMapComponent</title>
<polygon fill="#ffffb3" stroke="black" points="904.02,-122 753.98,-122 753.98,-86 904.02,-86 904.02,-122"/>
<text text-anchor="middle" x="829" y="-99.8" font-family="Times,serif" font-size="14.00">CameraMapComponent</text>
</g>
<!-- CameraMapComponent&#45;&gt;CameraMapModule -->
<g id="edge7" class="edge">
<title>CameraMapComponent&#45;&gt;CameraMapModule</title>
<path fill="none" stroke="black" d="M805.5,-122.21C805.5,-127.55 805.5,-132 805.5,-132 805.5,-132 634.13,-132 634.13,-132 634.13,-132 634.13,-151.85 634.13,-151.85"/>
<polygon fill="black" stroke="black" points="630.63,-151.85 634.13,-161.85 637.63,-151.85 630.63,-151.85"/>
</g>
<!-- CameraMapService -->
<g id="node12" class="node">
<title>CameraMapService</title>
<ellipse fill="#fdb462" stroke="black" cx="112" cy="-104" rx="87.94" ry="18"/>
<text text-anchor="middle" x="112" y="-99.8" font-family="Times,serif" font-size="14.00">CameraMapService</text>
</g>
<!-- CameraMapService&#45;&gt;CameraMapModule -->
<g id="edge11" class="edge">
<title>CameraMapService&#45;&gt;CameraMapModule</title>
<path fill="none" stroke="black" d="M112,-122.03C112,-146.98 112,-189 112,-189 112,-189 572.73,-189 572.73,-189"/>
<polygon fill="black" stroke="black" points="572.73,-192.5 582.73,-189 572.73,-185.5 572.73,-192.5"/>
</g>
</g>
</svg>
