<?xml version="1.0" encoding="UTF-8" standalone="no"?>
<!DOCTYPE svg PUBLIC "-//W3C//DTD SVG 1.1//EN"
 "http://www.w3.org/Graphics/SVG/1.1/DTD/svg11.dtd">
<!-- Generated by graphviz version 2.44.1 (20200629.0846)
 -->
<!-- Title: dependencies Pages: 1 -->
<svg width="752pt" height="284pt"
 viewBox="0.00 0.00 752.00 284.00" xmlns="http://www.w3.org/2000/svg" xmlns:xlink="http://www.w3.org/1999/xlink">
<g id="graph0" class="graph" transform="scale(1 1) rotate(0) translate(4 280)">
<title>dependencies</title>
<polygon fill="white" stroke="transparent" points="-4,4 -4,-280 748,-280 748,4 -4,4"/>
<text text-anchor="start" x="351.01" y="-42.4" font-family="sans-serif" font-weight="bold" font-size="14.00">Legend</text>
<polygon fill="#ffffb3" stroke="transparent" points="138,-10 138,-30 158,-30 158,-10 138,-10"/>
<text text-anchor="start" x="161.63" y="-15.4" font-family="sans-serif" font-size="14.00"> &#160;Declarations</text>
<polygon fill="#8dd3c7" stroke="transparent" points="251,-10 251,-30 271,-30 271,-10 251,-10"/>
<text text-anchor="start" x="274.73" y="-15.4" font-family="sans-serif" font-size="14.00"> &#160;Module</text>
<polygon fill="#80b1d3" stroke="transparent" points="337,-10 337,-30 357,-30 357,-10 337,-10"/>
<text text-anchor="start" x="360.78" y="-15.4" font-family="sans-serif" font-size="14.00"> &#160;Bootstrap</text>
<polygon fill="#fdb462" stroke="transparent" points="434,-10 434,-30 454,-30 454,-10 434,-10"/>
<text text-anchor="start" x="457.67" y="-15.4" font-family="sans-serif" font-size="14.00"> &#160;Providers</text>
<polygon fill="#fb8072" stroke="transparent" points="530,-10 530,-30 550,-30 550,-10 530,-10"/>
<text text-anchor="start" x="553.73" y="-15.4" font-family="sans-serif" font-size="14.00"> &#160;Exports</text>
<g id="clust1" class="cluster">
<title>cluster_CameraMapModule</title>
<polygon fill="none" stroke="black" stroke-dasharray="1,5" points="8,-70 8,-268 736,-268 736,-70 8,-70"/>
</g>
<g id="clust7" class="cluster">
<title>cluster_CameraMapModule_exports</title>
<polygon fill="none" stroke="black" points="125,-208 125,-260 647,-260 647,-208 125,-208"/>
</g>
<g id="clust2" class="cluster">
<title>cluster_CameraMapModule_declarations</title>
<polygon fill="none" stroke="black" points="216,-78 216,-130 728,-130 728,-78 216,-78"/>
</g>
<g id="clust9" class="cluster">
<title>cluster_CameraMapModule_providers</title>
<polygon fill="none" stroke="black" points="16,-78 16,-130 208,-130 208,-78 16,-78"/>
</g>
<!-- CameraEventsComponent -->
<g id="node1" class="node">
<title>CameraEventsComponent</title>
<polygon fill="#ffffb3" stroke="black" points="720.47,-122 557.53,-122 557.53,-86 720.47,-86 720.47,-122"/>
<text text-anchor="middle" x="639" y="-99.8" font-family="Times,serif" font-size="14.00">CameraEventsComponent</text>
</g>
<!-- CameraMapModule -->
<g id="node4" class="node">
<title>CameraMapModule</title>
<polygon fill="#8dd3c7" stroke="black" points="444.24,-187 441.24,-191 420.24,-191 417.24,-187 315.76,-187 315.76,-151 444.24,-151 444.24,-187"/>
<text text-anchor="middle" x="380" y="-164.8" font-family="Times,serif" font-size="14.00">CameraMapModule</text>
</g>
<!-- CameraEventsComponent&#45;&gt;CameraMapModule -->
<g id="edge1" class="edge">
<title>CameraEventsComponent&#45;&gt;CameraMapModule</title>
<path fill="none" stroke="black" d="M598.38,-122.02C598.38,-139.37 598.38,-163 598.38,-163 598.38,-163 454.34,-163 454.34,-163"/>
<polygon fill="black" stroke="black" points="454.34,-159.5 444.34,-163 454.34,-166.5 454.34,-159.5"/>
</g>
<!-- CameraListComponent -->
<g id="node2" class="node">
<title>CameraListComponent</title>
<polygon fill="#ffffb3" stroke="black" points="539.14,-122 392.86,-122 392.86,-86 539.14,-86 539.14,-122"/>
<text text-anchor="middle" x="466" y="-99.8" font-family="Times,serif" font-size="14.00">CameraListComponent</text>
</g>
<!-- CameraListComponent&#45;&gt;CameraMapModule -->
<g id="edge2" class="edge">
<title>CameraListComponent&#45;&gt;CameraMapModule</title>
<path fill="none" stroke="black" d="M418.52,-122.11C418.52,-122.11 418.52,-140.99 418.52,-140.99"/>
<polygon fill="black" stroke="black" points="415.02,-140.99 418.52,-150.99 422.02,-140.99 415.02,-140.99"/>
</g>
<!-- CameraMapComponent -->
<g id="node3" class="node">
<title>CameraMapComponent</title>
<polygon fill="#ffffb3" stroke="black" points="374.02,-122 223.98,-122 223.98,-86 374.02,-86 374.02,-122"/>
<text text-anchor="middle" x="299" y="-99.8" font-family="Times,serif" font-size="14.00">CameraMapComponent</text>
</g>
<!-- CameraMapComponent&#45;&gt;CameraMapModule -->
<g id="edge3" class="edge">
<title>CameraMapComponent&#45;&gt;CameraMapModule</title>
<path fill="none" stroke="black" d="M344.95,-122.11C344.95,-122.11 344.95,-140.99 344.95,-140.99"/>
<polygon fill="black" stroke="black" points="341.45,-140.99 344.95,-150.99 348.45,-140.99 341.45,-140.99"/>
</g>
<!-- CameraEventsComponent  -->
<g id="node5" class="node">
<title>CameraEventsComponent </title>
<polygon fill="#fb8072" stroke="black" points="639.47,-252 472.53,-252 472.53,-216 639.47,-216 639.47,-252"/>
<text text-anchor="middle" x="556" y="-229.8" font-family="Times,serif" font-size="14.00">CameraEventsComponent </text>
</g>
<!-- CameraMapModule&#45;&gt;CameraEventsComponent  -->
<g id="edge4" class="edge">
<title>CameraMapModule&#45;&gt;CameraEventsComponent </title>
<path fill="none" stroke="black" stroke-dasharray="5,2" d="M444.5,-175C475.51,-175 506.04,-175 506.04,-175 506.04,-175 506.04,-205.98 506.04,-205.98"/>
<polygon fill="black" stroke="black" points="502.54,-205.98 506.04,-215.98 509.54,-205.98 502.54,-205.98"/>
</g>
<!-- CameraListComponent  -->
<g id="node6" class="node">
<title>CameraListComponent </title>
<polygon fill="#fb8072" stroke="black" points="455.14,-252 304.86,-252 304.86,-216 455.14,-216 455.14,-252"/>
<text text-anchor="middle" x="380" y="-229.8" font-family="Times,serif" font-size="14.00">CameraListComponent </text>
</g>
<!-- CameraMapModule&#45;&gt;CameraListComponent  -->
<g id="edge5" class="edge">
<title>CameraMapModule&#45;&gt;CameraListComponent </title>
<path fill="none" stroke="black" stroke-dasharray="5,2" d="M380,-187.11C380,-187.11 380,-205.99 380,-205.99"/>
<polygon fill="black" stroke="black" points="376.5,-205.99 380,-215.99 383.5,-205.99 376.5,-205.99"/>
</g>
<!-- CameraMapComponent  -->
<g id="node7" class="node">
<title>CameraMapComponent </title>
<polygon fill="#fb8072" stroke="black" points="287.02,-252 132.98,-252 132.98,-216 287.02,-216 287.02,-252"/>
<text text-anchor="middle" x="210" y="-229.8" font-family="Times,serif" font-size="14.00">CameraMapComponent </text>
</g>
<!-- CameraMapModule&#45;&gt;CameraMapComponent  -->
<g id="edge6" class="edge">
<title>CameraMapModule&#45;&gt;CameraMapComponent </title>
<path fill="none" stroke="black" stroke-dasharray="5,2" d="M315.5,-175C285.09,-175 255.38,-175 255.38,-175 255.38,-175 255.38,-205.98 255.38,-205.98"/>
<polygon fill="black" stroke="black" points="251.88,-205.98 255.38,-215.98 258.88,-205.98 251.88,-205.98"/>
</g>
<!-- CameraMapService -->
<g id="node8" class="node">
<title>CameraMapService</title>
<ellipse fill="#fdb462" stroke="black" cx="112" cy="-104" rx="87.94" ry="18"/>
<text text-anchor="middle" x="112" y="-99.8" font-family="Times,serif" font-size="14.00">CameraMapService</text>
</g>
<!-- CameraMapService&#45;&gt;CameraMapModule -->
<g id="edge7" class="edge">
<title>CameraMapService&#45;&gt;CameraMapModule</title>
<path fill="none" stroke="black" d="M166.35,-118.28C166.35,-135.74 166.35,-163 166.35,-163 166.35,-163 305.61,-163 305.61,-163"/>
<polygon fill="black" stroke="black" points="305.61,-166.5 315.61,-163 305.61,-159.5 305.61,-166.5"/>
</g>
</g>
</svg>
